<?xml version="1.0" encoding="UTF-8" standalone="no"?>
<svg xmlns="http://www.w3.org/2000/svg" version="1.0" width="984.80774" height="1000.0" id="C:\tom\18-gon-dissection-random.svg">
<!-- X Coordinate transform: fx(x)=(x+2.9774227)*165.37923-->
<!-- Y Coordinate transform: fy(y)=(3.0233543-y)*165.37923 -->
<!-- Flac geometry view -->
<g style="opacity:1.0;fill:#5a5aff;fill-opacity:1;stroke:#000000;stroke-width:4;stroke-opacity:0.80;">  <!-- areaindex 0 -->
<polygon points=" 904.797,738.095 798.493,864.783 655.271,947.473 761.574,820.785" />
<polygon points=" 655.271,947.473 711.834,792.067 818.137,665.379 761.574,820.785" />
<polygon points=" 186.314,135.217 329.537,52.527 492.404,23.809 349.181,106.499" />
<polygon points=" 655.271,52.527 798.493,135.217 904.797,261.905 761.574,179.215" />
<polygon points=" 655.271,52.527 761.574,179.215 818.137,334.621 711.834,207.933" />
<polygon points=" 23.448,582.69 23.448,417.31 80.011,261.905 80.011,427.284" />
<polygon points=" 80.011,261.905 136.574,417.31 136.574,582.69 80.011,427.284" />
<polygon points=" 492.404,976.19 329.537,947.473 186.314,864.783 349.181,893.501" />
<polygon points=" 568.611,709.377 405.744,738.095 242.878,709.377 405.744,680.66" />
</g>
<g style="opacity:1.0;fill:#5abf5a;fill-opacity:1;stroke:#000000;stroke-width:4;stroke-opacity:0.80;">  <!-- areaindex 1 -->
<polygon points=" 904.797,738.095 761.574,820.785 818.137,665.379 961.36,582.69" />
<polygon points=" 186.314,135.217 349.181,106.499 242.878,233.187 80.011,261.905" />
<polygon points=" 492.404,23.809 655.271,52.527 512.048,135.217 349.181,106.499" />
<polygon points=" 818.137,665.379 711.834,792.067 711.834,626.688 818.137,500" />
<polygon points=" 904.797,261.905 961.36,417.31 818.137,334.621 761.574,179.215" />
<polygon points=" 23.448,582.69 80.011,427.284 136.574,582.69 80.011,738.095" />
<polygon points=" 655.271,947.473 492.404,976.19 349.181,893.501 512.048,864.783" />
<polygon points=" 568.611,543.998 405.744,515.28 299.441,388.593 462.307,417.31" />
<polygon points=" 405.744,680.66 299.441,553.972 299.441,388.593 405.744,515.28" />
</g>
<g style="opacity:1.0;fill:#5abfbf;fill-opacity:1;stroke:#000000;stroke-width:4;stroke-opacity:0.80;">  <!-- areaindex 2 -->
<polygon points=" 961.36,582.69 818.137,665.379 818.137,500 961.36,417.31" />
<polygon points=" 349.181,106.499 512.048,135.217 405.744,261.905 242.878,233.187" />
<polygon points=" 349.181,893.501 405.744,738.095 568.611,709.377 512.048,864.783" />
<polygon points=" 186.314,864.783 80.011,738.095 136.574,582.69 242.878,709.377" />
<polygon points=" 711.834,792.067 568.611,709.377 568.611,543.998 711.834,626.688" />
<polygon points=" 961.36,417.31 818.137,500 674.915,417.31 818.137,334.621" />
<polygon points=" 512.048,135.217 568.611,290.623 462.307,417.31 405.744,261.905" />
<polygon points=" 136.574,582.69 299.441,553.972 405.744,680.66 242.878,709.377" />
<polygon points=" 242.878,233.187 405.744,261.905 462.307,417.31 299.441,388.593" />
</g>
<g style="opacity:1.0;fill:#bf5a5a;fill-opacity:1;stroke:#000000;stroke-width:4;stroke-opacity:0.80;">  <!-- areaindex 3 -->
<polygon points=" 655.271,947.473 512.048,864.783 568.611,709.377 711.834,792.067" />
<polygon points=" 186.314,864.783 242.878,709.377 405.744,738.095 349.181,893.501" />
<polygon points=" 655.271,52.527 711.834,207.933 568.611,290.623 512.048,135.217" />
<polygon points=" 80.011,261.905 242.878,233.187 299.441,388.593 136.574,417.31" />
<polygon points=" 818.137,334.621 674.915,417.31 568.611,290.623 711.834,207.933" />
<polygon points=" 818.137,500 711.834,626.688 568.611,543.998 674.915,417.31" />
<polygon points=" 136.574,582.69 136.574,417.31 299.441,388.593 299.441,553.972" />
<polygon points=" 568.611,709.377 405.744,680.66 405.744,515.28 568.611,543.998" />
<polygon points=" 568.611,290.623 674.915,417.31 568.611,543.998 462.307,417.31" />
</g>
<g style="stroke:#000000;stroke-width:4;stroke-opacity:0.50;fill-opacity:0.0">
<!-- Group: <Default>-->
<polyline points=" 655.271,947.473 492.404,976.19 329.537,947.473 186.314,864.783 80.011,738.095 23.448,582.69 23.448,417.31 80.011,261.905 186.314,135.217 329.537,52.527 492.404,23.809 655.271,52.527 798.493,135.217 904.797,261.905 961.36,417.31 961.36,582.69 904.797,738.095 761.574,820.785 655.271,947.473 798.493,864.783" />
<polyline points=" 904.797,738.095 798.493,864.783" />
<polyline points=" 655.271,52.527 512.048,135.217 349.181,106.499 186.314,135.217" />
<polyline points=" 492.404,23.809 349.181,106.499 242.878,233.187 80.011,261.905" />
<polyline points=" 961.36,582.69 818.137,665.379 711.834,792.067 655.271,947.473" />
<polyline points=" 512.048,135.217 568.611,290.623 674.915,417.31 818.137,500 818.137,665.379 761.574,820.785" />
<polyline points=" 961.36,417.31 818.137,334.621 761.574,179.215 655.271,52.527" />
<polyline points=" 761.574,179.215 904.797,261.905" />
<polyline points=" 80.011,261.905 80.011,427.284 23.448,582.69" />
<polyline points=" 492.404,976.19 349.181,893.501 186.314,864.783" />
<polyline points=" 349.181,893.501 512.048,864.783 655.271,947.473" />
<polyline points=" 80.011,738.095 136.574,582.69 136.574,417.31 80.011,261.905" />
<polyline points=" 80.011,427.284 136.574,582.69 242.878,709.377 405.744,738.095 568.611,709.377 711.834,792.067" />
<polyline points=" 512.048,864.783 568.611,709.377 568.611,543.998 462.307,417.31 405.744,261.905 242.878,233.187" />
<polyline points=" 961.36,417.31 818.137,500 711.834,626.688 711.834,792.067" />
<polyline points=" 818.137,334.621 711.834,207.933 655.271,52.527" />
<polyline points=" 405.744,738.095 349.181,893.501" />
<polyline points=" 462.307,417.31 568.611,290.623 711.834,207.933" />
<polyline points=" 568.611,709.377 405.744,680.66 242.878,709.377 186.314,864.783" />
<polyline points=" 711.834,626.688 568.611,543.998 405.744,515.28 299.441,388.593 242.878,233.187" />
<polyline points=" 462.307,417.31 299.441,388.593 136.574,417.31" />
<polyline points=" 405.744,261.905 512.048,135.217" />
<polyline points=" 568.611,543.998 674.915,417.31 818.137,334.621" />
<polyline points=" 405.744,515.28 405.744,680.66" />
<polyline points=" 299.441,388.593 299.441,553.972 405.744,680.66" />
<polyline points=" 299.441,553.972 136.574,582.69" />
</g>
</svg>
